<?xml version="1.0"?>
<svg width="468.72" height="468.72" xmlns="http://www.w3.org/2000/svg" xmlns:svg="http://www.w3.org/2000/svg" enable-background="new 0 0 468.72 468.72" version="1.1" xml:space="preserve">

 <g class="layer">
  <title>Layer 1</title>
  <path d="m442.22,454.52c0.52,-0.83 -1.41,-8.65 -1.6,-14.4c-0.19,-5.99 2.3,-8.9 2.3,-12.3c0,-1.79 -1.71,-4.58 -2.1,-7.3c-0.34,-2.45 0.84,-5.47 0,-6.9c-8.5,-14.5 0,-19 0,-26.95c0,-7 -3.6,-5.95 -3.6,-10.95c0,-3.25 6.1,-9.3 6.1,-13.55s-3.5,-4.25 -3.5,-7.75s1.5,-4.75 1.5,-7.75c0,-1.93 -1.5,-4.35 -2.2,-6.75c-0.7,-2.4 -0.55,-9.9 -0.55,-13s-3.75,-9.5 -3.75,-11.5s12.7,-12.9 -6.25,-26.75c3.37,-16.38 -2.27,-20.58 -7.65,-25.95c-1.73,-5.38 3.65,-15.05 -6.35,-25.05c1.45,-11.65 -3.05,-7.25 -5.75,-12.25s1.62,-10.68 1.62,-13.43c0,-4.25 -6.89,-2 -9.92,-8.21s5.42,-12.71 -19.7,-13.86c-6.38,-6.38 -4.25,-10.25 -22.75,-10.25c-3.75,-6.25 -3.25,-11.25 -12.75,-11.25c0,-4 3,-7.5 6,-7.5s5.25,5.5 8,5.5c10.5,-3 5.5,3 17,3c5.25,-0.75 10.75,-2 18.75,-0.75c8,0 7.87,-4.75 11.75,-4.75c2.87,0 5.67,3.76 10.17,2.23s7.33,-11.48 11.33,-11.48s4.59,4 9.77,0.93c5.18,-3.08 2.76,-10.1 8.48,-12.43c3.37,-1.38 6.95,0.02 10.87,-0.85c3.92,-0.87 9.24,-10 10.88,-12.07c0,-2.17 -2.15,-3.52 -3.92,-6.73c-1.65,-2.98 -2.86,-6.55 -4.31,-8.48c-3,-4 -3.83,-3.23 -9.05,-7.65c-3.73,-3.17 -1.72,-4.81 -4.05,-9.81s-5.46,-1.48 -8.79,-6.14c-3.34,-4.67 -0.88,-4.52 -3.88,-9.19s-4.66,-1.51 -8.66,-5.18s-3.34,-6.82 -9.01,-11.49s-9.67,0.67 -13,-1.33c-3.33,-2 -1.66,-3.66 -4.33,-5.33c-2.67,-1.67 -5.8,-0.4 -9.8,-2.4s-3.43,-5.17 -6.5,-6.7c-2.6,-1.3 -11.3,-0.4 -15.4,-0.4c-5.4,0 -16.1,-4.3 -16.1,-9.8c0,-4.5 6.38,-9.12 8.05,-12.45c1.69,-4.23 0.19,-6.11 2.05,-9.55c1.6,-3.5 6.46,-4.08 6.5,-6.7c0.02,-1.56 -7.4,-3.8 -9,-3.7c-2.24,0.08 -3.54,1.45 -5.36,1.45c-2.82,0 -3.69,-6.75 -11.44,-6.75c-8,0 -4,2.2 -12,2.2c-6,0 -3.5,-3.9 -10.5,-3.9s-6.65,5.3 -13.4,5.3s-5.85,-5.35 -14.6,-5.35s-6.75,5.85 -13.5,5.85s-10,-3.1 -14.25,-3.1s-8.1,6.8 -10.35,6.8c-3.3,-3 -26.1,-1.7 -41.65,10.2c-16.53,12.64 -16.9,34.1 -17.75,38.8s2,11.7 2,17.7c0,9.75 -12.75,51.28 -37.22,51.28c-19.03,0 -25.78,-13.53 -31.28,-19.78s-35,-36 -34,-59.5c0.25,0 -20.5,18.75 -20.5,18.75l368.9,387.35z" fill="#000000" id="svg_1"/>
  <g id="svg_2">
   <path d="m44.23,164.31l57.49,72.28l0,-50.11c0,-6.99 -1,-11.71 -3.01,-14.18c-2.75,-3.32 -7.36,-4.92 -13.83,-4.81l0,-3.18l38.5,0l0,3.18c-4.93,0.63 -8.24,1.45 -9.93,2.45c-1.69,1 -3.01,2.64 -3.95,4.9c-0.95,2.26 -1.42,6.14 -1.42,11.64l0,97.03l-2.92,0l-78.81,-97.03l0,74.08c0,6.7 1.53,11.23 4.6,13.58c3.06,2.35 6.57,3.52 10.53,3.52l2.75,0l0,3.18l-41.34,0l0,-3.18c6.42,-0.06 10.89,-1.37 13.41,-3.95c2.52,-2.58 3.78,-6.96 3.78,-13.15l0,-82.24l-2.49,-3.1c-2.47,-3.09 -4.64,-5.12 -6.53,-6.1c-1.89,-0.97 -4.62,-1.52 -8.17,-1.63l0,-3.18l41.34,0z" fill="#000000" id="svg_3"/>
   <path d="m174.4,171.02l0,47.43l2.32,0c7.39,0 12.74,-2.32 16.07,-6.96c3.32,-4.64 5.44,-11.48 6.36,-20.54l3.26,0l0,61.02l-3.26,0c-0.69,-6.65 -2.14,-12.09 -4.34,-16.33c-2.21,-4.24 -4.77,-7.09 -7.69,-8.55s-7.17,-2.19 -12.72,-2.19l0,32.83c0,6.42 0.27,10.34 0.81,11.77c0.55,1.44 1.56,2.61 3.05,3.53c1.49,0.91 3.9,1.37 7.22,1.37l6.96,0c10.89,0 19.61,-2.52 26.17,-7.56c6.56,-5.04 11.27,-12.72 14.14,-23.03l3.18,0l-5.24,37.04l-100.72,0l0,-3.18l3.86,0c3.38,0 6.11,-0.61 8.17,-1.81c1.49,-0.8 2.63,-2.18 3.44,-4.12c0.63,-1.38 0.94,-4.99 0.94,-10.83l0,-76.66c0,-5.27 -0.14,-8.51 -0.43,-9.71c-0.57,-2 -1.63,-3.55 -3.18,-4.64c-2.18,-1.6 -5.15,-2.41 -8.94,-2.41l-3.86,0l0,-3.18l97.54,0l0,34.46l-3.27,0c-1.66,-8.42 -4,-14.46 -7,-18.13c-3.01,-3.67 -7.27,-6.36 -12.77,-8.08c-3.2,-1.03 -9.22,-1.54 -18.04,-1.54l-12.03,0z" fill="#000000" id="svg_4"/>
  </g>
  <g id="svg_5">
   <path d="m200.02,361.48l0,32.65c0,6.3 0.39,10.27 1.16,11.9s2.13,2.94 4.08,3.91c1.95,0.98 5.59,1.46 10.91,1.46l0,3.18l-59.64,0l0,-3.18c5.39,0 9.04,-0.5 10.96,-1.5c1.92,-1 3.27,-2.31 4.04,-3.91c0.77,-1.6 1.16,-5.56 1.16,-11.86l0,-75.62c0,-6.31 -0.39,-10.27 -1.16,-11.91s-2.14,-2.93 -4.08,-3.91c-1.95,-0.97 -5.59,-1.46 -10.92,-1.46l0,-3.18l54.14,0c14.1,0 24.41,0.98 30.94,2.93c6.53,1.94 11.86,5.54 15.99,10.78s6.18,11.39 6.18,18.43c0,8.6 -3.09,15.7 -9.28,21.32c-3.95,3.55 -9.48,6.21 -16.58,7.99l28.01,39.44c3.67,5.1 6.28,8.28 7.82,9.54c2.35,1.78 5.07,2.75 8.17,2.93l0,3.18l-36.7,0l-37.55,-53.11l-7.65,0zm0,-57.15l0,51.04l4.9,0c7.96,0 13.92,-0.73 17.87,-2.19s7.06,-4.09 9.33,-7.9c2.26,-3.81 3.39,-8.78 3.39,-14.91c0,-8.88 -2.08,-15.44 -6.23,-19.68c-4.15,-4.24 -10.84,-6.36 -20.07,-6.36l-9.19,0z" fill="#000000" id="svg_6"/>
   <path d="m392.44,298.05l0,3.18c-4.24,0.69 -8.02,2.95 -11.35,6.79c-2.4,2.87 -5.98,9.6 -10.74,20.2l-40.13,89.03l-2.84,0l-39.96,-92.64c-4.81,-11.18 -8.03,-17.73 -9.67,-19.68c-1.63,-1.95 -4.71,-3.18 -9.23,-3.7l0,-3.18l55.85,0l0,3.18l-1.89,0c-5.04,0 -8.48,0.63 -10.31,1.89c-1.32,0.86 -1.98,2.12 -1.98,3.78c0,1.04 0.23,2.25 0.69,3.66c0.46,1.4 2.01,5.17 4.64,11.3l24.84,58l23.03,-51.64c2.75,-6.25 4.44,-10.43 5.07,-12.55c0.63,-2.12 0.94,-3.92 0.94,-5.41c0,-1.72 -0.45,-3.24 -1.37,-4.56c-0.92,-1.32 -2.26,-2.32 -4.04,-3.01c-2.46,-0.97 -5.73,-1.46 -9.8,-1.46l0,-3.18l38.25,0z" fill="#000000" id="svg_7"/>
  </g>
  <rect fill="#000000" height="6.44" id="svg_8" width="44" x="105.64" y="218.42"/>
  <rect fill="#000000" height="20.57" id="svg_9" width="11" x="180.31" y="278.85"/>
 </g>
</svg>
